<?xml version="1.0" encoding="iso-8859-1"?>
<!-- Uploaded to: SVG Repo, www.svgrepo.com, Generator: SVG Repo Mixer Tools -->
<svg height="800px" width="800px" version="1.1" id="Layer_1" xmlns="http://www.w3.org/2000/svg" xmlns:xlink="http://www.w3.org/1999/xlink" 
	 viewBox="0 0 512 512" xml:space="preserve">
<g>
	<path style="fill:#EE8700;" d="M150.261,367.304c46.104,0,83.478-37.374,83.478-83.478c0-13.646-3.273-26.527-9.079-37.901
		c-1.486-2.911-3.138-5.721-4.942-8.422l-52.762-78.954V66.783h-33.391v91.766l-52.762,78.955c-1.804,2.7-3.456,5.512-4.941,8.422
		c-5.806,11.373-9.08,24.254-9.08,37.9C66.783,329.931,104.156,367.304,150.261,367.304z M105.603,261.114
		c0.892-1.755,1.885-3.44,2.967-5.06l41.69-62.392l41.696,62.397c1.076,1.614,2.07,3.299,2.956,5.043
		c3.608,7.06,5.435,14.701,5.435,22.723c0,27.619-22.468,50.087-50.087,50.087s-50.087-22.468-50.087-50.087
		C100.174,275.804,102,268.163,105.603,261.114z"/>
	<polygon style="fill:#EE8700;" points="378.435,210.13 235.087,66.783 187.869,66.783 378.435,257.348 	"/>
</g>
<path style="fill:#957856;" d="M283.15,440.328c-3.131,3.131-4.89,7.377-4.89,11.805v43.172c0,9.22,7.475,16.696,16.696,16.696
	h200.348c9.22,0,16.696-7.475,16.696-16.696v-43.172c0-4.428-1.759-8.674-4.89-11.805l-61.893-61.893H345.043L283.15,440.328z"/>
<path style="fill:#6A563D;" d="M445.217,378.435H395.13V512h100.174c9.22,0,16.696-7.475,16.696-16.696v-43.172
	c0-4.428-1.759-8.674-4.89-11.805L445.217,378.435z"/>
<path style="fill:#806749;" d="M345.043,411.826h100.174c0-3.465,0-390.471,0-395.13c0-9.22-7.475-16.696-16.696-16.696
	C422.662,0,37.31,0,16.696,0C7.475,0,0,7.475,0,16.696v66.783c0,9.22,7.475,16.696,16.696,16.696c127.648,0,207.55,0,328.348,0
	C345.043,132.602,345.043,376.825,345.043,411.826z"/>
<path style="fill:#5F4D37;" d="M395.13,411.826h50.087c0-3.465,0-390.471,0-395.13c0-9.22-7.475-16.696-16.696-16.696
	C422.662,0,37.31,0,16.696,0C7.475,0,0,7.475,0,16.696v33.391h395.13V411.826z"/>
</svg>